<svg xmlns="http://www.w3.org/2000/svg" width="1280" height="760" viewBox="0 0 1280 760">
  <rect width="1280" height="760" fill="#202830"/>
  <rect x="18" y="18" width="1244" height="724" rx="24" fill="#29333d"/>
  <rect x="18" y="18" width="1244" height="50" rx="24" fill="#1b2229"/>
  <circle cx="54" cy="43" r="8" fill="#f08f7a"/>
  <circle cx="78" cy="43" r="8" fill="#e4c46a"/>
  <circle cx="102" cy="43" r="8" fill="#7fd1aa"/>
  <text x="142" y="49" fill="#b8c4cf" font-size="22" font-family="Segoe UI, Arial, sans-serif">AutoCAD Coach | OFFSET + MIRROR</text>
  <rect x="44" y="98" width="1192" height="604" rx="22" fill="#0f1922"/>
  <g stroke="#203647" stroke-width="1">
    <path d="M84 138H1196"/>
    <path d="M84 188H1196"/>
    <path d="M84 238H1196"/>
    <path d="M84 288H1196"/>
    <path d="M84 338H1196"/>
    <path d="M84 388H1196"/>
    <path d="M84 438H1196"/>
    <path d="M84 488H1196"/>
    <path d="M84 538H1196"/>
    <path d="M84 588H1196"/>
    <path d="M84 638H1196"/>
    <path d="M144 118V678"/>
    <path d="M204 118V678"/>
    <path d="M264 118V678"/>
    <path d="M324 118V678"/>
    <path d="M384 118V678"/>
    <path d="M444 118V678"/>
    <path d="M504 118V678"/>
    <path d="M564 118V678"/>
    <path d="M624 118V678"/>
    <path d="M684 118V678"/>
    <path d="M744 118V678"/>
    <path d="M804 118V678"/>
    <path d="M864 118V678"/>
    <path d="M924 118V678"/>
    <path d="M984 118V678"/>
    <path d="M1044 118V678"/>
    <path d="M1104 118V678"/>
  </g>
  <path d="M280 534 L440 260 L600 534 Z" fill="none" stroke="#57c5ff" stroke-width="8" stroke-linejoin="round"/>
  <path d="M330 534 L440 346 L550 534 Z" fill="none" stroke="#8ce09f" stroke-width="6" stroke-linejoin="round"/>
  <line x1="660" y1="220" x2="660" y2="570" stroke="#7d8ea1" stroke-width="4" stroke-dasharray="12 10"/>
  <path d="M760 534 L920 260 L1080 534 Z" fill="none" stroke="#57c5ff" stroke-width="8" stroke-linejoin="round"/>
  <path d="M710 534 L820 346 L930 534 Z" fill="none" stroke="#8ce09f" stroke-width="6" stroke-linejoin="round" opacity="0.65"/>
  <path d="M610 534 L500 346 L390 534 Z" fill="none" stroke="#f6c262" stroke-width="6" stroke-linejoin="round" opacity="0.65"/>
  <text x="244" y="590" fill="#d7e2ea" font-size="22" font-family="Segoe UI, Arial, sans-serif">OFFSET builds parallel geometry</text>
  <text x="734" y="590" fill="#d7e2ea" font-size="22" font-family="Segoe UI, Arial, sans-serif">MIRROR duplicates across centerline</text>
  <rect x="84" y="110" width="340" height="54" rx="14" fill="#182631"/>
  <text x="108" y="145" fill="#d7e2ea" font-size="20" font-family="Consolas, monospace">OFFSET  Distance: 20</text>
  <rect x="740" y="110" width="360" height="54" rx="14" fill="#182631"/>
  <text x="764" y="145" fill="#d7e2ea" font-size="20" font-family="Consolas, monospace">MIRROR  Select objects...</text>
</svg>
