<svg xmlns="http://www.w3.org/2000/svg" width="1400" height="900" viewBox="0 0 1400 900">
  <rect width="1400" height="900" rx="40" fill="#dce7ee"/>
  <rect x="70" y="70" width="1260" height="760" rx="34" fill="#1a2933"/>
  <rect x="70" y="70" width="1260" height="58" rx="34" fill="#243742"/>
  <circle cx="116" cy="99" r="10" fill="#ff8d73"/><circle cx="146" cy="99" r="10" fill="#ffd06e"/><circle cx="176" cy="99" r="10" fill="#7fd68b"/>
  <rect x="100" y="155" width="230" height="620" rx="24" fill="#102633"/>
  <rect x="360" y="155" width="930" height="620" rx="24" fill="#edf3f7"/>
  <rect x="390" y="188" width="870" height="74" rx="20" fill="#ffffff" stroke="#d3dee6" stroke-width="4"/>
  <rect x="390" y="286" width="420" height="460" rx="24" fill="#11202a"/>
  <rect x="836" y="286" width="424" height="220" rx="24" fill="#ffffff" stroke="#d3dee6" stroke-width="4"/>
  <rect x="836" y="526" width="424" height="220" rx="24" fill="#ffffff" stroke="#d3dee6" stroke-width="4"/>
  <path d="M458 625 L518 495 L612 565 L756 362" fill="none" stroke="#8fe8ff" stroke-width="12" stroke-linecap="round" stroke-linejoin="round"/>
  <path d="M455 342 H735" stroke="#2d4b5b" stroke-width="6" stroke-linecap="round"/>
  <path d="M455 388 H660" stroke="#2d4b5b" stroke-width="6" stroke-linecap="round"/>
  <text x="124" y="236" font-family="Segoe UI, Arial, sans-serif" font-size="30" fill="#eaf6fb" font-weight="700">AutoCAD Coach</text>
  <text x="124" y="280" font-family="Segoe UI, Arial, sans-serif" font-size="22" fill="#8fb7c8">Sofia Chavez Saife</text>
  <text x="872" y="344" font-family="Segoe UI, Arial, sans-serif" font-size="30" fill="#163547" font-weight="700">Lesson Studio</text>
  <text x="872" y="586" font-family="Segoe UI, Arial, sans-serif" font-size="30" fill="#163547" font-weight="700">Project Practice</text>
</svg>
