<svg xmlns="http://www.w3.org/2000/svg" width="1400" height="900" viewBox="0 0 1400 900">
  <rect width="1400" height="900" fill="#18252f"/>
  <rect x="28" y="28" width="1344" height="844" rx="28" fill="#101a21" stroke="#334956" stroke-width="6"/>
  <rect x="28" y="28" width="1344" height="62" rx="28" fill="#23343f"/>
  <rect x="58" y="120" width="220" height="700" rx="18" fill="#17242d"/>
  <rect x="304" y="120" width="1032" height="700" rx="18" fill="#0e161c"/>
  <rect x="304" y="120" width="1032" height="88" rx="18" fill="#1c2c36"/>
  <text x="344" y="176" font-family="Segoe UI, Arial, sans-serif" font-size="34" fill="#eff8ff" font-weight="700">LINE + CIRCLE</text>
  <path d="M390 280 H1260" stroke="#324853" stroke-width="2" opacity="0.5"/>
  <path d="M390 350 H1260" stroke="#324853" stroke-width="2" opacity="0.5"/>
  <path d="M390 420 H1260" stroke="#324853" stroke-width="2" opacity="0.5"/>
  <path d="M390 490 H1260" stroke="#324853" stroke-width="2" opacity="0.5"/>
  <path d="M390 560 H1260" stroke="#324853" stroke-width="2" opacity="0.5"/>
  <path d="M470 240 V760" stroke="#324853" stroke-width="2" opacity="0.5"/>
  <path d="M560 240 V760" stroke="#324853" stroke-width="2" opacity="0.5"/>
  <path d="M650 240 V760" stroke="#324853" stroke-width="2" opacity="0.5"/>
  <path d="M740 240 V760" stroke="#324853" stroke-width="2" opacity="0.5"/>
  <path d="M830 240 V760" stroke="#324853" stroke-width="2" opacity="0.5"/>
  <path d="M920 240 V760" stroke="#324853" stroke-width="2" opacity="0.5"/>
  <path d="M1010 240 V760" stroke="#324853" stroke-width="2" opacity="0.5"/>
  <line x1="450" y1="635" x2="690" y2="420" stroke="#8fe8ff" stroke-width="12" stroke-linecap="round"/>
  <line x1="690" y1="420" x2="810" y2="565" stroke="#8fe8ff" stroke-width="12" stroke-linecap="round"/>
  <circle cx="958" cy="492" r="135" fill="none" stroke="#ffc96b" stroke-width="12"/>
  <circle cx="958" cy="492" r="16" fill="#ffc96b"/>
  <line x1="958" y1="492" x2="1092" y2="492" stroke="#ffc96b" stroke-width="10" stroke-linecap="round"/>
  <text x="420" y="710" font-family="Segoe UI, Arial, sans-serif" font-size="24" fill="#8fe8ff" font-weight="700">LINE command</text>
  <text x="1030" y="556" font-family="Segoe UI, Arial, sans-serif" font-size="24" fill="#ffc96b" font-weight="700">Radius</text>
</svg>
