<svg xmlns="http://www.w3.org/2000/svg" width="1400" height="900" viewBox="0 0 1400 900">
  <rect width="1400" height="900" fill="#18252f"/>
  <rect x="28" y="28" width="1344" height="844" rx="28" fill="#101a21" stroke="#334956" stroke-width="6"/>
  <rect x="28" y="28" width="1344" height="62" rx="28" fill="#23343f"/>
  <rect x="58" y="120" width="220" height="700" rx="18" fill="#17242d"/>
  <rect x="304" y="120" width="1032" height="700" rx="18" fill="#0e161c"/>
  <rect x="304" y="120" width="1032" height="88" rx="18" fill="#1c2c36"/>
  <text x="344" y="176" font-family="Segoe UI, Arial, sans-serif" font-size="34" fill="#eff8ff" font-weight="700">MOVE + COPY</text>
  <rect x="470" y="410" width="170" height="120" rx="16" fill="none" stroke="#8fe8ff" stroke-width="10"/>
  <circle cx="470" cy="410" r="14" fill="#ffc96b"/>
  <path d="M670 470 C760 450 840 410 940 360" fill="none" stroke="#ffc96b" stroke-width="10" stroke-linecap="round"/>
  <polygon points="940,360 912,365 926,337" fill="#ffc96b"/>
  <rect x="988" y="332" width="170" height="120" rx="16" fill="none" stroke="#8fe8ff" stroke-width="10"/>
  <rect x="1030" y="518" width="130" height="95" rx="16" fill="none" stroke="#7fd68b" stroke-width="10"/>
  <text x="430" y="590" font-family="Segoe UI, Arial, sans-serif" font-size="24" fill="#ffc96b" font-weight="700">Base point</text>
  <text x="980" y="485" font-family="Segoe UI, Arial, sans-serif" font-size="24" fill="#8fe8ff" font-weight="700">Moved object</text>
  <text x="1018" y="650" font-family="Segoe UI, Arial, sans-serif" font-size="24" fill="#7fd68b" font-weight="700">Copied object</text>
</svg>
