<svg xmlns="http://www.w3.org/2000/svg" width="1280" height="760" viewBox="0 0 1280 760">
  <rect width="1280" height="760" fill="#202830"/>
  <rect x="18" y="18" width="1244" height="724" rx="24" fill="#29333d"/>
  <rect x="18" y="18" width="1244" height="50" rx="24" fill="#1b2229"/>
  <circle cx="54" cy="43" r="8" fill="#f08f7a"/>
  <circle cx="78" cy="43" r="8" fill="#e4c46a"/>
  <circle cx="102" cy="43" r="8" fill="#7fd1aa"/>
  <text x="142" y="49" fill="#b8c4cf" font-size="22" font-family="Segoe UI, Arial, sans-serif">AutoCAD Coach | POLYLINE + RECTANGLE</text>
  <rect x="42" y="98" width="232" height="604" rx="20" fill="#182028"/>
  <text x="64" y="138" fill="#7ba9d0" font-size="24" font-family="Segoe UI, Arial, sans-serif">Command History</text>
  <rect x="64" y="170" width="188" height="48" rx="12" fill="#24313d"/>
  <text x="78" y="201" fill="#dfe8ef" font-size="20" font-family="Consolas, monospace">PLINE</text>
  <rect x="64" y="236" width="188" height="48" rx="12" fill="#24313d"/>
  <text x="78" y="267" fill="#dfe8ef" font-size="20" font-family="Consolas, monospace">RECTANG</text>
  <rect x="64" y="306" width="188" height="130" rx="16" fill="#24313d"/>
  <text x="80" y="344" fill="#d2dce5" font-size="18" font-family="Segoe UI, Arial, sans-serif">Use one polyline</text>
  <text x="80" y="372" fill="#d2dce5" font-size="18" font-family="Segoe UI, Arial, sans-serif">for connected edges.</text>
  <text x="80" y="412" fill="#9eb5c9" font-size="16" font-family="Segoe UI, Arial, sans-serif">Rectangle creates</text>
  <text x="80" y="438" fill="#9eb5c9" font-size="16" font-family="Segoe UI, Arial, sans-serif">closed profiles fast.</text>
  <rect x="306" y="98" width="914" height="604" rx="22" fill="#0f1922"/>
  <g stroke="#203647" stroke-width="1">
    <path d="M346 138H1180"/>
    <path d="M346 188H1180"/>
    <path d="M346 238H1180"/>
    <path d="M346 288H1180"/>
    <path d="M346 338H1180"/>
    <path d="M346 388H1180"/>
    <path d="M346 438H1180"/>
    <path d="M346 488H1180"/>
    <path d="M346 538H1180"/>
    <path d="M346 588H1180"/>
    <path d="M346 638H1180"/>
    <path d="M386 118V678"/>
    <path d="M446 118V678"/>
    <path d="M506 118V678"/>
    <path d="M566 118V678"/>
    <path d="M626 118V678"/>
    <path d="M686 118V678"/>
    <path d="M746 118V678"/>
    <path d="M806 118V678"/>
    <path d="M866 118V678"/>
    <path d="M926 118V678"/>
    <path d="M986 118V678"/>
    <path d="M1046 118V678"/>
    <path d="M1106 118V678"/>
  </g>
  <path d="M454 560 L454 314 L660 314 L748 404 L748 560 Z" fill="none" stroke="#57c5ff" stroke-width="8" stroke-linejoin="round"/>
  <rect x="820" y="258" width="250" height="196" rx="4" fill="none" stroke="#8ce09f" stroke-width="8"/>
  <circle cx="454" cy="560" r="11" fill="#f6c262"/>
  <circle cx="748" cy="560" r="11" fill="#f6c262"/>
  <circle cx="660" cy="314" r="11" fill="#f6c262"/>
  <line x1="820" y1="480" x2="1070" y2="480" stroke="#7c93a7" stroke-width="3" stroke-dasharray="10 12"/>
  <line x1="790" y1="258" x2="790" y2="454" stroke="#7c93a7" stroke-width="3" stroke-dasharray="10 12"/>
  <text x="810" y="532" fill="#c2d2dd" font-size="22" font-family="Segoe UI, Arial, sans-serif">Closed rectangle profile</text>
  <text x="430" y="610" fill="#c2d2dd" font-size="22" font-family="Segoe UI, Arial, sans-serif">Polyline keeps edges connected</text>
  <rect x="358" y="640" width="824" height="36" rx="10" fill="#182631"/>
  <text x="382" y="664" fill="#d7e2ea" font-size="18" font-family="Consolas, monospace">Command: _RECTANG   Specify first corner point...</text>
</svg>
