<svg xmlns="http://www.w3.org/2000/svg" width="1400" height="900" viewBox="0 0 1400 900">
  <rect width="1400" height="900" fill="#18252f"/>
  <rect x="28" y="28" width="1344" height="844" rx="28" fill="#101a21" stroke="#334956" stroke-width="6"/>
  <rect x="28" y="28" width="1344" height="62" rx="28" fill="#23343f"/>
  <rect x="58" y="120" width="220" height="700" rx="18" fill="#17242d"/>
  <rect x="304" y="120" width="1032" height="700" rx="18" fill="#0e161c"/>
  <rect x="304" y="120" width="1032" height="88" rx="18" fill="#1c2c36"/>
  <rect x="338" y="702" width="960" height="78" rx="16" fill="#1a2933"/>
  <text x="344" y="176" font-family="Segoe UI, Arial, sans-serif" font-size="34" fill="#eff8ff" font-weight="700">Workspace + Navigation</text>
  <text x="92" y="210" font-family="Segoe UI, Arial, sans-serif" font-size="26" fill="#eff8ff" font-weight="700">Tool panels</text>
  <text x="92" y="260" font-family="Segoe UI, Arial, sans-serif" font-size="22" fill="#8fb6c8">Home</text>
  <text x="92" y="304" font-family="Segoe UI, Arial, sans-serif" font-size="22" fill="#8fb6c8">Insert</text>
  <text x="92" y="348" font-family="Segoe UI, Arial, sans-serif" font-size="22" fill="#8fb6c8">Annotate</text>
  <path d="M390 280 H1260" stroke="#324853" stroke-width="2" opacity="0.5"/>
  <path d="M390 350 H1260" stroke="#324853" stroke-width="2" opacity="0.5"/>
  <path d="M390 420 H1260" stroke="#324853" stroke-width="2" opacity="0.5"/>
  <path d="M390 490 H1260" stroke="#324853" stroke-width="2" opacity="0.5"/>
  <path d="M390 560 H1260" stroke="#324853" stroke-width="2" opacity="0.5"/>
  <path d="M470 240 V680" stroke="#324853" stroke-width="2" opacity="0.5"/>
  <path d="M560 240 V680" stroke="#324853" stroke-width="2" opacity="0.5"/>
  <path d="M650 240 V680" stroke="#324853" stroke-width="2" opacity="0.5"/>
  <path d="M740 240 V680" stroke="#324853" stroke-width="2" opacity="0.5"/>
  <path d="M830 240 V680" stroke="#324853" stroke-width="2" opacity="0.5"/>
  <path d="M920 240 V680" stroke="#324853" stroke-width="2" opacity="0.5"/>
  <path d="M1010 240 V680" stroke="#324853" stroke-width="2" opacity="0.5"/>
  <path d="M1100 240 V680" stroke="#324853" stroke-width="2" opacity="0.5"/>
  <rect x="760" y="300" width="240" height="150" rx="20" fill="none" stroke="#8fe8ff" stroke-width="10"/>
  <path d="M850 534 C940 520 1010 470 1070 420" fill="none" stroke="#ffc96b" stroke-width="10" stroke-linecap="round"/>
  <polygon points="1070,420 1042,425 1055,397" fill="#ffc96b"/>
  <text x="1088" y="420" font-family="Segoe UI, Arial, sans-serif" font-size="24" fill="#ffc96b" font-weight="700">Drawing area</text>
  <text x="370" y="751" font-family="Consolas, monospace" font-size="28" fill="#d8f0fb">Command line: LINE  |  CIRCLE  |  Z  A</text>
</svg>
